<svg xmlns="http://www.w3.org/2000/svg" fill="#0098fb" viewBox="0 0 48 48"><g stroke="none" fill="#0098fb" stroke-width="1px"><style stroke="none" fill="#0098fb" stroke-width="1px">#profile-balance .st0{fill-rule:evenodd;clip-rule:evenodd;fill:#f90}</style><path d="M24 0C10.7 0 0 10.7 0 24s10.7 24 24 24 24-10.7 24-24S37.3 0 24 0zm7 28c.6 0 1 .4 1 1s-.4 1-1 1h-6v5c0 .6-.4 1-1 1s-1-.4-1-1v-5h-6c-.6 0-1-.4-1-1s.4-1 1-1h6v-4h-6c-.6 0-1-.4-1-1s.4-1 1-1h5.6c-.6 0-1.3-.3-1.6-.8l-4.6-5.5c-.4-.4-.2-.8.4-.8h1.1c.6 0 1.3.3 1.6.8l4.3 5.1 4.3-5.1c.4-.4 1.1-.8 1.6-.8h1.1c.6 0 .7.3.4.8l-4.6 5.5c-.3.5-1 .8-1.6.8h6c.6 0 1 .4 1 1s-.4 1-1 1h-6v4h6z" class="st0" stroke="none" fill="#0098fb" stroke-width="1px"></path></g></svg>