<svg xmlns="http://www.w3.org/2000/svg" fill="#4aa5f0" viewBox="0 0 54 54"><g stroke="none" fill="#4aa5f0" stroke-width="1px"><g fill="#4aa5f0" fill-rule="evenodd" stroke="none" stroke-width="1px"><path stroke="none" stroke-width="1px" d="M48 28c0 11.598-9.402 21-21 21" fill="#4aa5f0"></path><path fill="#4aa5f0" d="M43 40.012v-18h2a9 9 0 0 1 9 9 9 9 0 0 1-9 9h-2zM10 40.012H9a9 9 0 0 1-9-9 9 9 0 0 1 9-9h1v18zM27 46a3 3 0 1 0 0 6 3 3 0 1 0 0-6" stroke="none" stroke-width="1px"></path><path fill="#4aa5f0" d="M43 24h6c0-12.426-9.574-23-22-23S4 11.574 4 24h6c0-9.098 7.902-17 17-17 9.097 0 16 7.902 16 17z" stroke="none" stroke-width="1px"></path></g></g></svg>